<svg id="Layer_1" data-name="Layer 1" xmlns="http://www.w3.org/2000/svg" viewBox="0 0 49.88 49.88"><defs><style>.cls-1{fill:none;stroke:#1d5c66;stroke-miterlimit:10;stroke-width:1.88px;}.cls-2{fill:#1d5c66;}.cls-3{fill:#e6e6e6;}.cls-4{fill:#f7fff7;}</style></defs><title>ai</title><circle class="cls-1" cx="24.94" cy="24.94" r="24"/><path class="cls-2" d="M671.41,175.52h24.16v24.1H671.41Z" transform="translate(-658.55 -162.63)"/><path class="cls-3" d="M672.13,176.25h22.71V198.9H672.13Zm-1.82,24.5h26.35V174.39H670.31Z" transform="translate(-658.55 -162.63)"/><path class="cls-4" d="M687.18,185.07c0-.09,0-.13.13-.13H689c.08,0,.13,0,.13.13V194c0,.09,0,.14-.13.14h-1.7a.13.13,0,0,1-.15-.15v-8.87Z" transform="translate(-658.55 -162.63)"/><path class="cls-4" d="M687.06,182.51a1.12,1.12,0,1,1,2.24,0,1.06,1.06,0,0,1-1.14,1.15A1,1,0,0,1,687.06,182.51Z" transform="translate(-658.55 -162.63)"/><path class="cls-4" d="M679.07,190.6,678.2,194c0,.09-.05.11-.16.11h-1.62c-.11,0-.13,0-.11-.17l3.12-11.19a3.39,3.39,0,0,0,.11-.94c0-.07,0-.11.09-.11h2.3c.08,0,.11,0,.14.11l3.49,12.15c0,.09,0,.15-.09.15h-1.82c-.09,0-.15,0-.17-.1l-.9-3.39Z" transform="translate(-658.55 -162.63)"/><path class="cls-2" d="M682.12,188.77c-.31-1.24-1-4-1.31-5.29h0c-.23,1.32-.81,3.55-1.27,5.29Z" transform="translate(-658.55 -162.63)"/></svg>