<svg id="Layer_1" data-name="Layer 1" xmlns="http://www.w3.org/2000/svg" viewBox="0 0 49.88 49.88"><defs><style>.cls-1{fill:none;stroke:#1d5c66;stroke-miterlimit:10;stroke-width:1.88px;}.cls-2{fill:#1d5c66;}.cls-3{fill:#fff;}</style></defs><title>android</title><circle class="cls-1" cx="24.94" cy="24.94" r="24"/><rect class="cls-2" x="17.22" y="18.86" width="17.17" height="15.54" rx="1.03"/><rect class="cls-2" x="17.2" y="18.86" width="17.2" height="7.08"/><path class="cls-2" d="M697.53,562a1.83,1.83,0,0,1-1.83,1.83h0a1.83,1.83,0,0,1-1.83-1.83v-8.22a1.83,1.83,0,0,1,1.83-1.83h0a1.83,1.83,0,0,1,1.83,1.83Z" transform="translate(-658.55 -533.66)"/><path class="cls-2" d="M674.83,562a1.83,1.83,0,0,1-1.83,1.83h0a1.83,1.83,0,0,1-1.83-1.83v-8.22a1.83,1.83,0,0,1,1.83-1.83h0a1.83,1.83,0,0,1,1.83,1.83Z" transform="translate(-658.55 -533.66)"/><path class="cls-2" d="M675.82,551.51s.19-7.28,8.53-7.26,8.53,7.26,8.53,7.26Z" transform="translate(-658.55 -533.66)"/><path class="cls-3" d="M681.63,547.79a1,1,0,1,1-1-1A1,1,0,0,1,681.63,547.79Z" transform="translate(-658.55 -533.66)"/><path class="cls-3" d="M689.12,547.79a1,1,0,1,1-1-1A1,1,0,0,1,689.12,547.79Z" transform="translate(-658.55 -533.66)"/><path class="cls-2" d="M680.32,545.23s.13,0,.21,0h0c.08-.06.13-.14.1-.18L679,542.77s-.13,0-.21,0h0c-.09.06-.13.14-.1.18Z" transform="translate(-658.55 -533.66)"/><path class="cls-2" d="M688.37,545.23s-.12,0-.2,0h0c-.09-.06-.13-.14-.1-.18l1.59-2.25s.13,0,.21,0h0c.08.06.13.14.1.18Z" transform="translate(-658.55 -533.66)"/><path class="cls-2" d="M689.71,572.63a1.82,1.82,0,0,1-1.83,1.82h0a1.82,1.82,0,0,1-1.83-1.82v-8.22a1.82,1.82,0,0,1,1.83-1.83h0a1.82,1.82,0,0,1,1.83,1.83Z" transform="translate(-658.55 -533.66)"/><path class="cls-2" d="M682.65,572.63a1.82,1.82,0,0,1-1.83,1.82h0a1.82,1.82,0,0,1-1.83-1.82v-8.22a1.82,1.82,0,0,1,1.83-1.83h0a1.82,1.82,0,0,1,1.83,1.83Z" transform="translate(-658.55 -533.66)"/></svg>