<svg id="Layer_1" data-name="Layer 1" xmlns="http://www.w3.org/2000/svg" viewBox="0 0 49.88 49.88"><defs><style>.cls-1{fill:none;stroke:#1d5c66;stroke-miterlimit:10;stroke-width:1.88px;}.cls-2{fill:#1d5c66;}.cls-2,.cls-3,.cls-4{fill-rule:evenodd;}.cls-3{fill:#f7fff7;}.cls-4{fill:#e6e6e6;}</style></defs><title>cdr</title><circle class="cls-1" cx="24.94" cy="24.94" r="24"/><polygon class="cls-2" points="12.82 11.8 39.17 11.8 39.17 38.08 12.82 38.08 12.82 11.8 12.82 11.8"/><path class="cls-3" d="M671.36,303.14c.93.76,2,1.95,2.89,2.84l2.82,2.81,4.24,4.21c.56.56.62.86.33,1.3-.68,1.05-1.39.27-2-.34-1.24-1.22-7.58-7.74-8.28-8.1V311a16.93,16.93,0,0,1,1.79,1.72l1.76,1.76c1.13,1.12,2.29,2.4,3.46,3.44a12.74,12.74,0,0,0,2.28,1.25c.77.41,1.43.78,2.19,1.17,1,.52,6.52,4.05,4.76.45L683.47,313l-7.27-7.23c-.77-.77-4.29-4.37-4.84-4.73v2.15Z" transform="translate(-658.55 -286.38)"/><polygon class="cls-4" points="34.56 27.63 29.43 27.63 30.14 30.73 33.87 30.74 34.56 27.63 34.56 27.63"/><path class="cls-4" d="M680.09,298.18h-.89a32,32,0,0,0,3.85,7.43,46.15,46.15,0,0,0,5,6.14c-2.6-3.32-7.07-9.95-8-13.57Zm10.44,0v14.11h-.61c-1.12-5-2.55-8.36-3.16-14.1Zm-6.84,0h-2.47c.78,3.33,5.07,11.4,8,13.82a53.91,53.91,0,0,1-5.5-13.82Z" transform="translate(-658.55 -286.38)"/><path class="cls-4" d="M697.72,305.81a46.66,46.66,0,0,1-4.87,5.94,77,77,0,0,0,4.87-7.08v1.14Zm-7.35-7.63v14.11H691c1.12-5,2.55-8.36,3.16-14.1Zm6.84,0h.51v4.93c-1.71,3.46-4.15,7.34-6,8.89a53.56,53.56,0,0,0,5.5-13.82Z" transform="translate(-658.55 -286.38)"/></svg>