<svg id="Layer_1" data-name="Layer 1" xmlns="http://www.w3.org/2000/svg" viewBox="0 0 49.88 49.88"><defs><style>.cls-1,.cls-2{fill:none;}.cls-2{stroke:#1d5c66;stroke-miterlimit:10;stroke-width:1.88px;}.cls-3{fill:#1d5c66;}.cls-4{fill:#f7fff7;}.cls-5{fill:#e6e6e6;}</style></defs><title>css</title><circle class="cls-1" cx="24.94" cy="24.94" r="24"/><circle class="cls-2" cx="24.94" cy="24.94" r="24"/><path class="cls-3" d="M691,417.63h-2.19l2.28,2.46v1.18h-4.69v-1.38h2.28l-2.28-2.46v-1.18H691Zm-5.53,0h-2.19l2.28,2.46v1.18h-4.68v-1.38h2.27l-2.27-2.46v-1.18h4.59Zm-5.47.05h-2.36v2.16H680v1.43h-4v-5h4Z" transform="translate(-658.55 -409.91)"/><path class="cls-3" d="M672.7,450.46l-2.4-26.9h26.35l-2.4,26.9-10.79,3Z" transform="translate(-658.55 -409.91)"/><path class="cls-3" d="M683.48,451.16l8.72-2.42,2-23H683.48Z" transform="translate(-658.55 -409.91)"/><path class="cls-4" d="M683.48,435.51h4.36l.3-3.38h-4.66v-3.3h8.27l-.08.89-.81,9.09h-7.38Z" transform="translate(-658.55 -409.91)"/><path class="cls-5" d="M683.49,444.07h0l-3.68-1-.23-2.63h-3.31l.46,5.18,6.76,1.88h0v-3.44Z" transform="translate(-658.55 -409.91)"/><path class="cls-4" d="M687.56,438.66l-.4,4.42-3.68,1v3.44l6.77-1.88,0-.55.57-6.42Z" transform="translate(-658.55 -409.91)"/><path class="cls-5" d="M683.49,428.83v3.3h-8l-.07-.74-.15-1.67-.08-.89Zm0,6.68v3.3h-3.64l-.06-.74-.15-1.68-.08-.88h3.93Z" transform="translate(-658.55 -409.91)"/></svg>