<svg id="Layer_1" data-name="Layer 1" xmlns="http://www.w3.org/2000/svg" viewBox="0 0 49.88 49.88"><defs><style>.cls-1{fill:none;stroke:#1d5c66;stroke-miterlimit:10;stroke-width:1.88px;}.cls-2{fill:#1d5c66;}.cls-3{fill:#e6e6e6;}.cls-4{fill:#f7fff7;}</style></defs><title>html</title><circle class="cls-1" cx="24.94" cy="24.94" r="24"/><path class="cls-2" d="M696.66,360.66l-2.4,26.9-10.79,3-10.76-3-2.4-26.9Z" transform="translate(-658.55 -347.01)"/><path class="cls-2" d="M683.49,388.26l8.72-2.41,2-23H683.49Z" transform="translate(-658.55 -347.01)"/><path class="cls-3" d="M678.82,369.46h4.67v-3.3h-8.28l.08.89.81,9.09h7.39v-3.3h-4.37Zm.74,8.33h-3.31l.46,5.18,6.76,1.87h0v-3.43h0l-3.67-1-.24-2.63Z" transform="translate(-658.55 -347.01)"/><path class="cls-2" d="M672.76,353.35h1.68V355H676v-1.66h1.68v5H676v-1.68h-1.53v1.68h-1.68v-5Zm7.09,1.67h-1.47v-1.67H683V355h-1.48v3.35h-1.68V355Zm3.89-1.67h1.75l1.08,1.77,1.07-1.77h1.75v5h-1.67v-2.49l-1.15,1.79h0l-1.16-1.79v2.49h-1.64Zm6.48,0h1.68v3.36h2.36v1.66h-4v-5Z" transform="translate(-658.55 -347.01)"/><path class="cls-4" d="M683.48,376.14h4.06l-.39,4.28-3.67,1v3.43l6.76-1.87,0-.56.77-8.68.08-.89h-7.66v3.3Zm0-6.69h8l.07-.74.15-1.67.08-.89h-8.26v3.29Z" transform="translate(-658.55 -347.01)"/></svg>