<svg id="Layer_1" data-name="Layer 1" xmlns="http://www.w3.org/2000/svg" viewBox="0 0 49.88 49.88"><defs><style>.cls-1{fill:none;stroke:#1d5c66;stroke-miterlimit:10;stroke-width:1.88px;}.cls-2{fill:#1d5c66;}.cls-3{fill:#f7fff7;}.cls-4{fill:#e6e6e6;}</style></defs><title>js</title><circle class="cls-1" cx="24.94" cy="24.94" r="24"/><polygon class="cls-2" points="38.98 13.66 25.8 13.66 25.8 13.66 12.63 13.66 15.1 40.45 25.8 43.49 25.8 43.49 25.8 43.49 25.8 43.49 25.8 43.49 36.51 40.45 38.98 13.66"/><polygon class="cls-2" points="25.8 15.85 25.8 41.22 25.8 41.22 34.47 38.76 36.59 15.85 25.8 15.85"/><polygon class="cls-3" points="32.7 19.13 19.37 19.13 18.44 29.16 18.46 29.1 29.79 29.1 29.42 33.34 25.8 34.39 22.13 33.33 21.91 30.76 18.58 30.76 19.06 35.89 25.8 37.81 32.55 35.89 33.48 25.82 21.45 25.82 21.61 22.46 29.95 22.46 30.07 24.39 33.43 24.39 32.7 19.13"/><path class="cls-4" d="M684.35,489.67h-6.44l-.93,10,0-.06h7.35v-3.28h-3.89l.16-3.36h3.73Zm-3.89,11.63h-3.33l.48,5.13,6.74,1.91v-3.42l-3.67-1.06Z" transform="translate(-658.55 -470.54)"/><polygon class="cls-2" points="23.24 9.71 20.89 9.71 20.89 11.39 23.24 11.39 24.49 11.39 24.92 11.39 24.92 6.39 23.24 6.39 23.24 9.71"/><path class="cls-2" d="M689.26,477h-4.09v1.75l1.62,1.6h-1.62v1.6h4.09v-1.6l-1.64-1.6h1.64Z" transform="translate(-658.55 -470.54)"/></svg>