<svg id="Layer_1" data-name="Layer 1" xmlns="http://www.w3.org/2000/svg" viewBox="0 0 49.88 49.88"><defs><style>.cls-1{fill:none;stroke:#1d5c66;stroke-miterlimit:10;stroke-width:1.88px;}.cls-2{fill:#e2e5e9;}.cls-3{fill:#1d5c66;}.cls-4{fill:#f7fff7;}</style></defs><title>ps</title><circle class="cls-1" cx="24.94" cy="24.94" r="24"/><path class="cls-2" d="M670.44,235.42l26-.09.1,25.56-26,.1Z" transform="translate(-658.55 -223.26)"/><path class="cls-3" d="M672.55,237.41h21.87v21.5H672.55Z" transform="translate(-658.55 -223.26)"/><path class="cls-4" d="M676.77,242.58s1.64,0,3,0a4.41,4.41,0,0,1,3,.89,3.24,3.24,0,0,1,1,2.48,3.46,3.46,0,0,1-.9,2.48,4.28,4.28,0,0,1-3.14,1.29l-.8,0v3.37h-2.2V242.58Zm2.2,5.25a5.66,5.66,0,0,0,.74,0,1.74,1.74,0,0,0,1.9-1.81,1.71,1.71,0,0,0-1.73-1.82c-.45,0-.91,0-.91,0Z" transform="translate(-658.55 -223.26)"/><path class="cls-4" d="M684.65,250.72a5.28,5.28,0,0,0,2.2.68c.73,0,1-.26,1-.66s-.24-.82-1.14-1.12c-1.6-.55-2.22-1.2-2.2-2.11,0-1.47,1.23-2.58,3.15-2.58a4.56,4.56,0,0,1,2.09.54v1.77a5.18,5.18,0,0,0-2-.63c-.59,0-.92.25-.92.64s.3.57,1.25.9c1.47.51,2.09,1.27,2.1,2.42,0,1.45-1.12,2.61-3.35,2.54a5.23,5.23,0,0,1-2.2-.64v-1.75Z" transform="translate(-658.55 -223.26)"/></svg>