<svg id="Layer_1" data-name="Layer 1" xmlns="http://www.w3.org/2000/svg" viewBox="0 0 49.88 49.88"><defs><style>.cls-1{fill:none;stroke:#1d5c66;stroke-miterlimit:10;stroke-width:1.88px;}.cls-2{fill:#1d5c66;}</style></defs><title>react</title><circle class="cls-1" cx="24.94" cy="24.94" r="24"/><path class="cls-2" d="M700,628.18c0-2-2.48-3.85-6.27-5,.88-3.86.49-6.93-1.22-7.92a2.69,2.69,0,0,0-1.36-.34v1.36a1.33,1.33,0,0,1,.69.16c.83.47,1.18,2.27.9,4.59a18.07,18.07,0,0,1-.3,1.79,29,29,0,0,0-3.86-.66,28.31,28.31,0,0,0-2.53-3c2-1.84,3.84-2.85,5.1-2.85v-1.35h0c-1.67,0-3.85,1.19-6.06,3.25-2.21-2-4.4-3.23-6.07-3.23v1.36c1.26,0,3.12,1,5.1,2.83a28.07,28.07,0,0,0-2.51,3,28.7,28.7,0,0,0-3.86.66c-.14-.6-.24-1.19-.32-1.76-.28-2.32.07-4.12.89-4.6a1.34,1.34,0,0,1,.7-.16v-1.35h0a2.7,2.7,0,0,0-1.37.34c-1.71,1-2.09,4.05-1.21,7.9-3.78,1.16-6.24,3-6.24,5s2.47,3.84,6.26,5c-.87,3.86-.48,6.94,1.23,7.92a2.68,2.68,0,0,0,1.37.34c1.67,0,3.85-1.19,6.06-3.25,2.21,2,4.4,3.23,6.07,3.23a2.7,2.7,0,0,0,1.37-.34c1.71-1,2.09-4.05,1.21-7.91C697.5,632,700,630.14,700,628.18Zm-7.91-4c-.23.78-.51,1.59-.82,2.39-.25-.48-.51-1-.8-1.45s-.57-1-.87-1.42A23.85,23.85,0,0,1,692.05,624.13Zm-2.78,6.46c-.48.82-1,1.6-1.47,2.32-.9.08-1.82.13-2.74.13s-1.84,0-2.73-.12q-.76-1.08-1.47-2.31c-.47-.79-.88-1.6-1.27-2.42.38-.81.8-1.62,1.26-2.42s1-1.6,1.46-2.32c.91-.08,1.83-.12,2.75-.12s1.83,0,2.73.12c.51.72,1,1.49,1.47,2.3s.88,1.61,1.26,2.42C690.14,629,689.72,629.8,689.27,630.59Zm2-.79c.33.82.61,1.63.84,2.42-.8.2-1.64.36-2.5.49.29-.47.59-1,.87-1.44S691,630.29,691.23,629.8Zm-6.16,6.48c-.56-.58-1.13-1.23-1.69-1.94.55,0,1.11,0,1.67,0s1.14,0,1.69,0A23.64,23.64,0,0,1,685.07,636.28Zm-4.52-3.57q-1.29-.19-2.49-.48c.23-.79.51-1.59.82-2.4.25.48.51,1,.8,1.46S680.26,632.25,680.55,632.71ZM685,620.07a23.74,23.74,0,0,1,1.69,1.94c-.55,0-1.11,0-1.67,0s-1.14,0-1.69,0A23.64,23.64,0,0,1,685,620.07Zm-4.49,3.58c-.3.46-.6.94-.88,1.44s-.54,1-.79,1.45c-.33-.81-.6-1.62-.84-2.41C678.84,623.94,679.68,623.77,680.55,623.65Zm-5.5,7.6c-2.15-.92-3.54-2.12-3.54-3.07s1.39-2.17,3.54-3.08c.52-.22,1.09-.42,1.68-.61a29.07,29.07,0,0,0,1.37,3.7,28.09,28.09,0,0,0-1.35,3.68C676.15,631.68,675.58,631.47,675.05,631.25Zm3.27,8.68c-.83-.48-1.19-2.28-.91-4.6.07-.57.18-1.17.31-1.78a30.37,30.37,0,0,0,3.86.66,29.17,29.17,0,0,0,2.53,3c-2,1.84-3.84,2.85-5.11,2.85A1.39,1.39,0,0,1,678.32,639.93Zm14.4-4.63c.29,2.32-.06,4.12-.88,4.6a1.37,1.37,0,0,1-.7.16c-1.26,0-3.12-1-5.1-2.83a27.83,27.83,0,0,0,2.5-3,27.06,27.06,0,0,0,3.87-.67A15.72,15.72,0,0,1,692.72,635.3Zm2.34-4c-.52.22-1.09.42-1.68.61a29.07,29.07,0,0,0-1.37-3.7,28.09,28.09,0,0,0,1.35-3.68c.6.19,1.17.4,1.71.62,2.15.92,3.54,2.12,3.54,3.08S697.21,630.34,695.06,631.25Z" transform="translate(-660.12 -603.23)"/><path class="cls-2" d="M679,614.93Z" transform="translate(-660.12 -603.23)"/><circle class="cls-2" cx="24.94" cy="24.94" r="2.78"/><path class="cls-2" d="M691.1,614.91Z" transform="translate(-660.12 -603.23)"/></svg>