<svg id="Layer_1" data-name="Layer 1" xmlns="http://www.w3.org/2000/svg" xmlns:xlink="http://www.w3.org/1999/xlink" viewBox="0 0 1024 400"><defs><style>.cls-1{fill:url(#linear-gradient);}.cls-2{font-size:26.19px;}.cls-2,.cls-5{font-family:Roboto-Regular, Roboto;}.cls-3{fill:#007ac0;}.cls-4{fill:#c42d2c;}.cls-5{font-size:26.87px;}</style><linearGradient id="linear-gradient" x1="85" y1="284" x2="923" y2="284" gradientUnits="userSpaceOnUse"><stop offset="0" stop-color="#0071bc"/><stop offset="0.27" stop-color="aqua"/><stop offset="0.41" stop-color="#39b54a"/><stop offset="0.71" stop-color="#f7931e"/><stop offset="1" stop-color="#c1272d"/></linearGradient></defs><title>termo</title><rect class="cls-1" x="85" y="271" width="838" height="26"/><text class="cls-2" transform="translate(85.14 337.57)">Sangat salah</text><text class="cls-2" transform="translate(472.14 337.57)">Salah</text><text class="cls-2" transform="translate(861.14 337.57)">Benar</text><path class="cls-3" d="M150,170.93V109a26,26,0,0,0-52,0v61.93a39,39,0,1,0,52,0ZM124,226a26,26,0,0,1-17.33-45.38l4.33-3.88V109a13,13,0,0,1,26,0v67.74l4.33,3.88A26,26,0,0,1,124,226Z"/><circle class="cls-3" cx="124" cy="200" r="19.5"/><path class="cls-4" d="M910,170.93V109a26,26,0,0,0-52,0v61.93a39,39,0,1,0,52,0ZM884,226a26,26,0,0,1-17.33-45.38l4.33-3.88V109a13,13,0,0,1,26,0v67.74l4.33,3.88A26,26,0,0,1,884,226Z"/><rect class="cls-4" x="877.5" y="135" width="13" height="78"/><circle class="cls-4" cx="884" cy="200" r="19.5"/><text class="cls-5" transform="translate(364.57 82.93)">Thermometer Jawaban</text></svg>